<mxfile host="app.diagrams.net" modified="2023-05-11T13:26:51.667Z" agent="Mozilla/5.0 (Macintosh; Intel Mac OS X 10_15_7) AppleWebKit/605.1.15 (KHTML, like Gecko) Version/15.6.1 Safari/605.1.15" etag="ZM0eFv_Lszp2ECkJG5XO" version="21.2.9" type="github">
  <diagram name="Page-1" id="YL3UeHftRqh7bZdehh5i">
    <mxGraphModel dx="1164" dy="821" grid="1" gridSize="10" guides="1" tooltips="1" connect="1" arrows="1" fold="1" page="1" pageScale="1" pageWidth="827" pageHeight="1169" math="0" shadow="0">
      <root>
        <mxCell id="0" />
        <mxCell id="1" parent="0" />
        <mxCell id="kqvUMCP3Ss-ZGnMXkm6k-3" style="edgeStyle=orthogonalEdgeStyle;rounded=0;orthogonalLoop=1;jettySize=auto;html=1;" edge="1" parent="1" source="kqvUMCP3Ss-ZGnMXkm6k-1" target="kqvUMCP3Ss-ZGnMXkm6k-2">
          <mxGeometry relative="1" as="geometry" />
        </mxCell>
        <mxCell id="kqvUMCP3Ss-ZGnMXkm6k-1" value="" style="ellipse;whiteSpace=wrap;html=1;aspect=fixed;" vertex="1" parent="1">
          <mxGeometry x="370" y="40" width="20" height="20" as="geometry" />
        </mxCell>
        <mxCell id="kqvUMCP3Ss-ZGnMXkm6k-9" style="edgeStyle=orthogonalEdgeStyle;rounded=0;orthogonalLoop=1;jettySize=auto;html=1;" edge="1" parent="1" source="kqvUMCP3Ss-ZGnMXkm6k-2" target="kqvUMCP3Ss-ZGnMXkm6k-4">
          <mxGeometry relative="1" as="geometry" />
        </mxCell>
        <mxCell id="kqvUMCP3Ss-ZGnMXkm6k-2" value="read &quot;DAT&quot; file" style="rounded=0;whiteSpace=wrap;html=1;" vertex="1" parent="1">
          <mxGeometry x="320" y="80" width="120" height="40" as="geometry" />
        </mxCell>
        <mxCell id="kqvUMCP3Ss-ZGnMXkm6k-10" style="edgeStyle=orthogonalEdgeStyle;rounded=0;orthogonalLoop=1;jettySize=auto;html=1;entryX=0.5;entryY=0;entryDx=0;entryDy=0;" edge="1" parent="1" source="kqvUMCP3Ss-ZGnMXkm6k-4" target="kqvUMCP3Ss-ZGnMXkm6k-7">
          <mxGeometry relative="1" as="geometry" />
        </mxCell>
        <mxCell id="kqvUMCP3Ss-ZGnMXkm6k-4" value="mount structure" style="rounded=0;whiteSpace=wrap;html=1;" vertex="1" parent="1">
          <mxGeometry x="320" y="160" width="120" height="40" as="geometry" />
        </mxCell>
        <mxCell id="kqvUMCP3Ss-ZGnMXkm6k-12" style="edgeStyle=orthogonalEdgeStyle;rounded=0;orthogonalLoop=1;jettySize=auto;html=1;entryX=0.5;entryY=0;entryDx=0;entryDy=0;" edge="1" parent="1" source="kqvUMCP3Ss-ZGnMXkm6k-7" target="kqvUMCP3Ss-ZGnMXkm6k-8">
          <mxGeometry relative="1" as="geometry" />
        </mxCell>
        <mxCell id="kqvUMCP3Ss-ZGnMXkm6k-7" value="put structure in hash" style="rounded=0;whiteSpace=wrap;html=1;" vertex="1" parent="1">
          <mxGeometry x="320" y="240" width="120" height="40" as="geometry" />
        </mxCell>
        <mxCell id="kqvUMCP3Ss-ZGnMXkm6k-13" style="edgeStyle=orthogonalEdgeStyle;rounded=0;orthogonalLoop=1;jettySize=auto;html=1;entryX=1;entryY=0.5;entryDx=0;entryDy=0;" edge="1" parent="1" source="kqvUMCP3Ss-ZGnMXkm6k-8" target="kqvUMCP3Ss-ZGnMXkm6k-2">
          <mxGeometry relative="1" as="geometry">
            <Array as="points">
              <mxPoint x="480" y="340" />
              <mxPoint x="480" y="100" />
            </Array>
          </mxGeometry>
        </mxCell>
        <mxCell id="kqvUMCP3Ss-ZGnMXkm6k-14" style="edgeStyle=orthogonalEdgeStyle;rounded=0;orthogonalLoop=1;jettySize=auto;html=1;entryX=0.5;entryY=0;entryDx=0;entryDy=0;" edge="1" parent="1" source="kqvUMCP3Ss-ZGnMXkm6k-8" target="kqvUMCP3Ss-ZGnMXkm6k-15">
          <mxGeometry relative="1" as="geometry">
            <mxPoint x="460" y="420" as="targetPoint" />
          </mxGeometry>
        </mxCell>
        <mxCell id="kqvUMCP3Ss-ZGnMXkm6k-8" value="" style="rhombus;whiteSpace=wrap;html=1;" vertex="1" parent="1">
          <mxGeometry x="360" y="320" width="40" height="40" as="geometry" />
        </mxCell>
        <mxCell id="kqvUMCP3Ss-ZGnMXkm6k-15" value="" style="ellipse;whiteSpace=wrap;html=1;aspect=fixed;" vertex="1" parent="1">
          <mxGeometry x="370" y="380" width="20" height="20" as="geometry" />
        </mxCell>
      </root>
    </mxGraphModel>
  </diagram>
</mxfile>
